<svg width="107" height="31" viewBox="0 0 107 31" fill="none" xmlns="http://www.w3.org/2000/svg">
<rect y="2.07498" width="26.914" height="26.85" rx="6" fill="black"/>
<path d="M40.5461 24V7.2H43.6181V13.992L49.8341 7.2H53.6261L47.4341 13.872L53.7941 24H50.0261L45.2261 16.224L43.6181 17.976V24H40.5461ZM55.8976 24V7.2H62.0656C63.4096 7.2 64.5136 7.432 65.3776 7.896C66.2576 8.344 66.9136 8.96 67.3456 9.744C67.7776 10.512 67.9936 11.368 67.9936 12.312C67.9936 13.336 67.7216 14.272 67.1776 15.12C66.6496 15.968 65.8176 16.584 64.6816 16.968L68.1616 24H64.6336L61.5136 17.376H58.9696V24H55.8976ZM58.9696 15.12H61.8736C62.8976 15.12 63.6496 14.872 64.1296 14.376C64.6096 13.88 64.8496 13.224 64.8496 12.408C64.8496 11.608 64.6096 10.968 64.1296 10.488C63.6656 10.008 62.9056 9.768 61.8496 9.768H58.9696V15.12ZM74.0478 24L69.6078 7.2H72.8958L75.9198 20.568L79.4718 7.2H82.8558L86.3118 20.568L89.3358 7.2H92.6478L88.0878 24H84.4398L81.1038 11.544L77.6718 24H74.0478ZM94.3702 24V21.648L102.098 9.768H94.4422V7.2H105.65V9.552L97.8742 21.432H105.698V24H94.3702Z" fill="black"/>
<path d="M7.632 24V7.2H10.704V13.992L16.92 7.2H20.712L14.52 13.872L20.88 24H17.112L12.312 16.224L10.704 17.976V24H7.632Z" fill="white"/>
</svg>
